<svg id="Layer_5" enable-background="new 0 0 64 64" height="512" viewBox="0 0 64 64" width="512" xmlns="http://www.w3.org/2000/svg"><g><g><g><path d="m16 59v3h-14v-36h4.21c2.53 2.47 5.98 4 9.79 4v3 2 22z" fill="#ccd1d9"/></g><g><path d="m62 50v12h-12z" fill="#e6e9ed"/></g><g><path d="m25.79 26c-1.64 1.61-3.67 2.81-5.94 3.46-1.22.35-2.51.54-3.85.54v3 2 22 2 3h34v-12h12v-8-16z" fill="#e6e9ed"/></g><g><circle cx="9" cy="46" fill="#ff826e" r="3"/></g><g><path d="m62 50-12 12v-12z" fill="#b4dd7f"/></g><g><path d="m40 50h4v8h-24v-8h4 4 4 4z" fill="#ffeaa7"/></g><g><path d="m48 30h10v4h-10z" fill="#ff826e"/></g><g><path d="m44 30v4h-5.333-5.334-5.333v-4z" fill="#fcd770"/></g><g><path d="m28 30v4h-4-4v-4z" fill="#b4dd7f"/></g><g><path d="m16 2c7.73 0 14 6.27 14 14 0 3.92-1.61 7.46-4.21 10-1.64 1.61-3.67 2.81-5.94 3.46-1.22.35-2.51.54-3.85.54-3.81 0-7.26-1.53-9.79-4-2.6-2.54-4.21-6.08-4.21-10 0-7.73 6.27-14 14-14z" fill="#ffc729"/></g><g><path d="m20 34h24v12h-24z" fill="#f0d0b4"/></g><g><circle cx="16" cy="16" fill="#fcd770" r="10"/></g></g><g><path d="m15 20.855v2.145h2v-2.145c1.155-.366 2-1.435 2-2.709 0-1.087-.604-2.066-1.578-2.553l-1.95-.974c-.291-.146-.472-.439-.472-.765 0-.471.383-.854.854-.854h.292c.471 0 .854.383.854.854v.146h2v-.146c0-1.274-.845-2.343-2-2.709v-2.145h-2v2.145c-1.155.366-2 1.435-2 2.709 0 1.087.604 2.066 1.578 2.553l1.95.974c.291.146.472.439.472.765 0 .471-.383.854-.854.854h-.292c-.471 0-.854-.383-.854-.854v-.146h-2v.146c0 1.274.845 2.343 2 2.709z"/><path d="m16 27c6.065 0 11-4.935 11-11s-4.935-11-11-11-11 4.935-11 11 4.935 11 11 11zm0-20c4.962 0 9 4.038 9 9s-4.038 9-9 9-9-4.038-9-9 4.038-9 9-9z"/><path d="m27.971 25c1.893-2.51 3.029-5.621 3.029-9 0-8.271-6.729-15-15-15s-15 6.729-15 15c0 3.379 1.136 6.49 3.029 9h-3.029v38h48 1.414 12.586v-12.586-1.414-24zm-11.971-22c7.168 0 13 5.832 13 13s-5.832 13-13 13-13-5.832-13-13 5.832-13 13-13zm5 32h2v10h-2zm4 0h2v10h-2zm4 0h2v10h-2zm4 0h2v10h-2zm4 0h2v10h-2zm4 0h2v10h-2zm2-2h-2v-2h2zm-4 0h-10v-2h10zm-12 0h-6v-2h6zm34 28h-8.586l8.586-8.586zm-10-1.414v-8.586h8.586zm-2-10.586v12h-32v-2h-2v2h-12v-34h2.837c2.445 2.261 5.636 3.715 9.163 3.949v2.051h2v-2.051c.678-.045 1.349-.119 2-.252v16.303h26v-18h-21.549c.98-.564 1.887-1.237 2.712-2h34.837v22z"/><path d="m15 39h2v2h-2z"/><path d="m15 47h2v2h-2z"/><path d="m15 43h2v2h-2z"/><path d="m15 51h2v2h-2z"/><path d="m15 55h2v2h-2z"/><path d="m15 35h2v2h-2z"/><path d="m9 42c-2.206 0-4 1.794-4 4s1.794 4 4 4 4-1.794 4-4-1.794-4-4-4zm0 6c-1.103 0-2-.897-2-2s.897-2 2-2 2 .897 2 2-.897 2-2 2z"/><path d="m47 29v6h12v-6zm10 4h-8v-2h8z"/><path d="m47 37h12v2h-12z"/><path d="m57 41h2v2h-2z"/><path d="m47 41h8v2h-8z"/><path d="m47 45h12v2h-12z"/><path d="m19 59h26v-10h-26zm2-8h2v4h2v-4h2v4h2v-4h2v4h2v-4h2v4h2v-4h2v4h2v-4h2v6h-22z"/></g></g></svg>